<svg xmlns="http://www.w3.org/2000/svg" width="21" height="24" viewBox="0 0 21 24">
  <path id="trash-can-solid" d="M6.337.829A1.5,1.5,0,0,1,7.678,0h5.644a1.5,1.5,0,0,1,1.341.829L15,1.5h4.5a1.5,1.5,0,0,1,0,3H1.5a1.5,1.5,0,0,1,0-3H6ZM1.458,6H19.5V21a3,3,0,0,1-3,3H4.458a3.029,3.029,0,0,1-3-3Zm3.75,3.75v10.5a.781.781,0,0,0,.75.75.726.726,0,0,0,.75-.75V9.75A.726.726,0,0,0,5.958,9,.781.781,0,0,0,5.208,9.75Zm4.5,0v10.5a.781.781,0,0,0,.75.75.762.762,0,0,0,.792-.75V9.75A.762.762,0,0,0,10.458,9,.781.781,0,0,0,9.708,9.75Zm4.542,0v10.5a.75.75,0,0,0,1.5,0V9.75a.75.75,0,0,0-1.5,0Z" fill="#ea3a3d"/>
</svg>
